<svg width="24" height="24" viewBox="0 0 24 24" fill="none" xmlns="http://www.w3.org/2000/svg">
<path d="M19.5249 14.2224H9.34625L9.57351 15.3336H18.8936C19.4283 15.3336 19.8247 15.8301 19.7062 16.3516L19.5146 17.1945C20.1636 17.5095 20.6111 18.1748 20.6111 18.9447C20.6111 20.0281 19.725 20.9045 18.6381 20.8889C17.6025 20.874 16.7509 20.0337 16.723 18.9984C16.7077 18.4329 16.9342 17.9203 17.3064 17.5557H10.0269C10.3873 17.9087 10.6111 18.4004 10.6111 18.9447C10.6111 20.0493 9.69 20.9388 8.57396 20.887C7.58299 20.841 6.77705 20.0403 6.72497 19.0496C6.68476 18.2845 7.08733 17.6102 7.69896 17.2584L5.25983 5.33355H2.83333C2.37309 5.33355 2 4.96046 2 4.50022V3.94466C2 3.48442 2.37309 3.11133 2.83333 3.11133H6.39337C6.78924 3.11133 7.13045 3.38984 7.20979 3.77765L7.52806 5.33355H21.1663C21.7011 5.33355 22.0974 5.83011 21.9789 6.35157L20.3375 13.5738C20.2513 13.9532 19.914 14.2224 19.5249 14.2224ZM16.1667 8.94466H14.5V7.55577C14.5 7.24893 14.2513 7.00022 13.9444 7.00022H13.3889C13.0821 7.00022 12.8333 7.24893 12.8333 7.55577V8.94466H11.1667C10.8598 8.94466 10.6111 9.19338 10.6111 9.50022V10.0558C10.6111 10.3626 10.8598 10.6113 11.1667 10.6113H12.8333V12.0002C12.8333 12.3071 13.0821 12.5558 13.3889 12.5558H13.9444C14.2513 12.5558 14.5 12.3071 14.5 12.0002V10.6113H16.1667C16.4735 10.6113 16.7222 10.3626 16.7222 10.0558V9.50022C16.7222 9.19338 16.4735 8.94466 16.1667 8.94466Z" fill="black"/>
</svg>
